<svg width="345" height="84" viewBox="0 0 345 84" fill="none" xmlns="http://www.w3.org/2000/svg">
<path d="M344.753 41.8262C344.753 48.8235 343.174 55.0102 340.017 60.3862C336.945 65.6769 332.764 69.8155 327.473 72.8022C322.268 75.7889 316.422 77.2822 309.937 77.2822C303.452 77.2822 297.564 75.7889 292.273 72.8022C287.068 69.8155 282.886 65.6769 279.729 60.3862C276.657 55.0102 275.121 48.8235 275.121 41.8262C275.121 34.8289 276.657 28.6849 279.729 23.3942C282.886 18.0182 287.068 13.8369 292.273 10.8502C297.564 7.77819 303.452 6.24219 309.937 6.24219C316.422 6.24219 322.268 7.77819 327.473 10.8502C332.764 13.8369 336.945 18.0182 340.017 23.3942C343.174 28.6849 344.753 34.8289 344.753 41.8262ZM329.393 41.8262C329.393 37.4742 328.497 33.7195 326.705 30.5622C324.998 27.3195 322.652 24.8022 319.665 23.0102C316.764 21.2182 313.521 20.3222 309.937 20.3222C306.353 20.3222 303.068 21.2182 300.081 23.0102C297.18 24.8022 294.833 27.3195 293.041 30.5622C291.334 33.7195 290.481 37.4742 290.481 41.8262C290.481 46.0929 291.334 49.8475 293.041 53.0902C294.833 56.2475 297.18 58.7222 300.081 60.5142C303.068 62.3062 306.353 63.2022 309.937 63.2022C313.521 63.2022 316.764 62.3062 319.665 60.5142C322.652 58.7222 324.998 56.2475 326.705 53.0902C328.497 49.8475 329.393 46.0929 329.393 41.8262Z" fill="#2EC4B6"/>
<path d="M196.288 6.24219C203.115 6.24219 208.15 7.90619 211.392 11.2342C214.635 14.4769 216.768 18.7009 217.792 23.9062L215.616 22.7542L216.64 20.7062C217.664 18.7435 219.243 16.6528 221.376 14.4342C223.51 12.1302 226.07 10.2102 229.056 8.67419C232.128 7.05285 235.542 6.24219 239.296 6.24219C245.44 6.24219 250.091 7.56485 253.248 10.2102C256.491 12.8555 258.71 16.3969 259.904 20.8342C261.099 25.1862 261.696 30.0502 261.696 35.4262V68.1942C261.696 70.4129 260.971 72.2902 259.52 73.8262C258.07 75.2769 256.235 76.0022 254.016 76.0022C251.798 76.0022 249.963 75.2769 248.512 73.8262C247.062 72.2902 246.336 70.4129 246.336 68.1942V35.4262C246.336 32.6102 245.995 30.0928 245.312 27.8742C244.63 25.5702 243.392 23.7355 241.6 22.3702C239.808 21.0049 237.248 20.3222 233.92 20.3222C230.678 20.3222 227.904 21.0049 225.6 22.3702C223.296 23.7355 221.547 25.5702 220.352 27.8742C219.243 30.0928 218.688 32.6102 218.688 35.4262V68.1942C218.688 70.4129 217.963 72.2902 216.512 73.8262C215.062 75.2769 213.227 76.0022 211.008 76.0022C208.79 76.0022 206.955 75.2769 205.504 73.8262C204.054 72.2902 203.328 70.4129 203.328 68.1942V35.4262C203.328 32.6102 202.987 30.0928 202.304 27.8742C201.622 25.5702 200.384 23.7355 198.592 22.3702C196.8 21.0049 194.24 20.3222 190.912 20.3222C187.67 20.3222 184.896 21.0049 182.592 22.3702C180.288 23.7355 178.539 25.5702 177.344 27.8742C176.235 30.0928 175.68 32.6102 175.68 35.4262V68.1942C175.68 70.4129 174.955 72.2902 173.504 73.8262C172.054 75.2769 170.219 76.0022 168 76.0022C165.782 76.0022 163.947 75.2769 162.496 73.8262C161.046 72.2902 160.32 70.4129 160.32 68.1942V15.3302C160.32 13.1115 161.046 11.2769 162.496 9.82619C163.947 8.29019 165.782 7.52219 168 7.52219C170.219 7.52219 172.054 8.29019 173.504 9.82619C174.955 11.2769 175.68 13.1115 175.68 15.3302V20.8342L173.76 20.4502C174.528 18.9995 175.595 17.4635 176.96 15.8422C178.326 14.1355 179.99 12.5569 181.952 11.1062C183.915 9.65552 186.091 8.50352 188.48 7.65018C190.87 6.71152 193.472 6.24219 196.288 6.24219Z" fill="#2EC4B6"/>
<path d="M136.01 6.24219C138.229 6.24219 140.063 6.96752 141.514 8.41819C142.965 9.86885 143.69 11.7462 143.69 14.0502V68.1942C143.69 70.4129 142.965 72.2902 141.514 73.8262C140.063 75.2769 138.229 76.0022 136.01 76.0022C133.791 76.0022 131.957 75.2769 130.506 73.8262C129.055 72.2902 128.33 70.4129 128.33 68.1942V61.9222L131.146 63.0742C131.146 64.1835 130.549 65.5489 129.354 67.1702C128.159 68.7062 126.538 70.2422 124.49 71.7782C122.442 73.3142 120.01 74.6369 117.194 75.7462C114.463 76.7702 111.477 77.2822 108.234 77.2822C102.346 77.2822 97.0128 75.7889 92.2341 72.8022C87.4554 69.7302 83.6581 65.5489 80.8421 60.2582C78.1114 54.8822 76.7461 48.7382 76.7461 41.8262C76.7461 34.8289 78.1114 28.6849 80.8421 23.3942C83.6581 18.0182 87.4128 13.8369 92.1061 10.8502C96.7994 7.77819 102.005 6.24219 107.722 6.24219C111.391 6.24219 114.762 6.79685 117.834 7.90619C120.906 9.01552 123.551 10.4235 125.77 12.1302C128.074 13.8369 129.823 15.5862 131.018 17.3782C132.298 19.0848 132.938 20.5355 132.938 21.7302L128.33 23.3942V14.0502C128.33 11.8315 129.055 9.99685 130.506 8.54619C131.957 7.01019 133.791 6.24219 136.01 6.24219ZM110.154 63.2022C113.909 63.2022 117.194 62.2635 120.01 60.3862C122.826 58.5089 125.002 55.9489 126.538 52.7062C128.159 49.4635 128.97 45.8369 128.97 41.8262C128.97 37.7302 128.159 34.0608 126.538 30.8182C125.002 27.5755 122.826 25.0155 120.01 23.1382C117.194 21.2609 113.909 20.3222 110.154 20.3222C106.485 20.3222 103.242 21.2609 100.426 23.1382C97.6101 25.0155 95.3914 27.5755 93.7701 30.8182C92.2341 34.0608 91.4661 37.7302 91.4661 41.8262C91.4661 45.8369 92.2341 49.4635 93.7701 52.7062C95.3914 55.9489 97.6101 58.5089 100.426 60.3862C103.242 62.2635 106.485 63.2022 110.154 63.2022Z" fill="#2EC4B6"/>
<path d="M7.35717 15.0376C8.92326 14.618 10.4761 14.6436 12.0158 15.1145C13.5334 15.5029 14.8317 16.3919 15.9107 17.7813L45.2169 54.4538L42.8281 56.4191L49.9445 8.79445C50.4623 5.12197 52.2269 2.97061 55.2384 2.34036C57.299 1.78821 59.1242 2.0059 60.714 2.99343C62.3641 3.87644 63.4431 5.26584 63.9511 7.16163C64.1057 7.73861 64.1477 8.38993 64.0771 9.11559C64.089 9.81917 64.0485 10.4926 63.9559 11.1358L54.4846 68.27C53.9608 71.5907 52.2786 73.72 49.4379 74.6578C47.9381 75.3247 46.3359 75.4448 44.6314 75.0181C43.0093 74.5693 41.5954 73.5788 40.3898 72.0467L3.74392 27.2696C3.46864 26.9016 3.11902 26.421 2.69505 25.8279C2.35351 25.2127 2.06127 24.4517 1.81833 23.545C1.42078 22.0614 1.69369 20.4422 2.63704 18.6876C3.5583 16.8506 5.13168 15.6339 7.35717 15.0376Z" fill="#FF9F1C"/>
</svg>
